<svg xmlns="http://www.w3.org/2000/svg" xmlns:xlink="http://www.w3.org/1999/xlink" width="706" height="26" viewBox="0 0 706 26">
    <defs>
        <path id="prefix__a" d="M0 0.022L130.386 0.022 130.386 23.674 0 23.674z"/>
        <path id="prefix__c" d="M0 0.022L130.386 0.022 130.386 23.674 0 23.674z"/>
    </defs>
    <g fill="none" fill-rule="evenodd" opacity=".404">
        <g fill="#6F6F6F" fill-rule="nonzero">
            <path d="M2.41 21.1c7.204-4.597 15.368-1.277 19.438.928-5.637-2.229-13.895-2.74-19.439-.929z" transform="translate(200.2 1.733)"/>
            <path d="M15.041.07c3.462 0 6.433 2.019 7.766 4.92h-2.69c-1.193-1.462-3.04-2.39-5.1-2.39-2.034 0-3.836.905-5.029 2.32.07-.046.14-.092.188-.138 2.83-1.997 6.596.208 6.596.208s-3.579-1.044-5.988.65C8.35 7.335 8.749 10.7 8.749 10.7s-.024-.046-.047-.116c0 .047.023.07.023.117-.585-.418-1.286-.697-2.058-.766-.094-.488-.14-.999-.14-1.51C6.55 3.808 10.362.07 15.04.07zM4.164 19.15v-.72c2.245-1.648 6.386-3.783 11.368-2.252 7.58 2.345 12.375 5.548 18.223 4.109 5.848-1.44 6.362-4.62 6.362-4.62s-1.029 4.48-6.783 5.456c-5.755.974-11.065-.117-17.825-2.623-4.538-1.648-8.96-.349-11.345.65zm0-1.44c.42-.278.842-.533 1.24-.742-.188-.116-.375-.256-.538-.418-.305-.302-.538-.627-.702-.952v1.555l.047.024c.07.07.163.139.234.208l-.281-.139v.464zm0-7.242V7.822c.561-.185 1.146-.301 1.754-.325-.023.302-.047.604-.047.929 0 .534.047 1.044.14 1.532-.678.023-1.31.209-1.847.51zm0-2.646v2.646c-1.193.674-1.989 1.927-1.989 3.39 0 1.438.796 2.692 1.989 3.388v.464c-.468.325-.936.674-1.334.952C1.123 17.572 0 15.691 0 13.556c0-2.67 1.731-4.921 4.164-5.734zm0 7.753c-.749-1.462-.491-3.11-.491-3.11s-1.287 2.924.49 4.665v-1.555zm0 2.855c-1.17.859-1.825 1.578-1.825 1.578 0 .024.679-.371 1.825-.858v-.72z" transform="translate(200.2 1.733)"/>
            <path d="M23.205 17.293s3.602 1.833 7.018 1.532c3.391-.302 4.42-1.486 4.42-1.486s-1.24 2.275-4.514 2.414c-3.275.116-6.924-2.39-6.924-2.46zM20.351 5.803H23.392V8.821H20.351zM32.515 14.159H34.854V16.48H32.515zM24.094 3.018H28.141000000000002V7.034H24.094zM35.79 9.981H39.836999999999996V13.997H35.79zM28.538 7.196H30.784V9.424H28.538zM29.942 11.606H32.188V13.834H29.942zM25.263 11.838H27.532000000000004V14.065999999999999H25.263zM33.217 7.428H35.463V9.656H33.217z" transform="translate(200.2 1.733)"/>
            <g>
                <path d="M11.486 7.18c0 .93-.164 1.811-.468 2.577-.304.79-.749 1.463-1.334 2.02-.561.557-1.263.998-2.058 1.323-.796.302-1.684.464-2.667.464H0V.774h4.936c.982 0 1.871.163 2.666.465.796.325 1.498.766 2.059 1.323.561.557 1.006 1.23 1.333 2.02.328.812.492 1.67.492 2.599zm-2.457 0c0-.695-.093-1.322-.28-1.902-.187-.558-.468-1.022-.82-1.416-.35-.395-.771-.674-1.286-.882-.514-.21-1.076-.302-1.707-.302H2.433v9.03h2.503c.631 0 1.193-.094 1.707-.303.515-.209.936-.51 1.287-.882.35-.394.632-.858.819-1.416.163-.58.28-1.23.28-1.926zM15.018 1.842c0 .186-.047.372-.117.534-.07.163-.187.302-.304.441-.117.116-.281.232-.445.302-.164.07-.35.116-.561.116-.187 0-.374-.047-.538-.116-.164-.07-.328-.163-.445-.302-.117-.116-.234-.278-.304-.44-.07-.163-.117-.35-.117-.535 0-.185.047-.371.117-.557.07-.162.164-.325.304-.44.117-.117.281-.233.445-.303.164-.07.35-.116.538-.116.187 0 .374.047.561.116.164.07.328.163.445.302.117.116.234.279.304.441.07.186.117.372.117.557zm-.328 2.646v9.1h-2.199v-9.1h2.2zM19.462 4.35c.398 0 .772.045 1.1.115.35.07.655.186.935.348h2.644v.813c0 .139-.047.232-.117.325-.07.07-.187.139-.375.162l-.818.14c.07.162.117.324.14.487.023.162.047.348.047.534 0 .44-.094.859-.28 1.207-.188.371-.422.673-.75.928-.327.256-.701.441-1.122.58-.445.14-.913.21-1.427.21-.351 0-.679-.024-1.006-.093-.28.162-.421.37-.421.58 0 .186.093.325.257.418.164.092.398.139.679.185.28.047.584.047.935.047.351 0 .702.023 1.076.046.375.023.725.093 1.076.163.351.07.655.185.936.348.28.162.491.371.678.65.164.278.258.626.258 1.067 0 .395-.094.79-.304 1.184-.21.372-.492.72-.866 1.022-.374.301-.842.533-1.38.72-.538.185-1.17.278-1.871.278-.702 0-1.31-.07-1.802-.21-.514-.138-.935-.301-1.263-.533-.327-.232-.585-.488-.748-.766-.164-.279-.258-.58-.258-.905 0-.418.14-.79.398-1.068.257-.279.632-.51 1.1-.696-.234-.116-.398-.279-.539-.488-.14-.209-.21-.464-.21-.812 0-.14.023-.279.07-.418.047-.14.117-.279.21-.441.094-.14.211-.279.375-.395.14-.116.327-.232.538-.348-.468-.255-.819-.58-1.1-.998-.257-.418-.397-.905-.397-1.462 0-.441.093-.86.28-1.207.188-.372.445-.673.75-.929.327-.255.7-.464 1.145-.58.421-.14.89-.209 1.427-.209zm2.41 9.632c0-.186-.047-.325-.164-.441-.117-.116-.257-.21-.445-.279-.187-.07-.397-.116-.655-.139-.257-.023-.514-.046-.795-.046h-.865c-.304 0-.585-.024-.843-.093-.257.139-.444.302-.608.487-.163.186-.234.395-.234.65 0 .163.047.302.117.441.07.14.21.255.375.348.187.093.397.186.678.232.28.047.632.093 1.03.093.42 0 .771-.023 1.052-.093.304-.07.538-.139.725-.255.187-.116.328-.255.421-.394.164-.163.21-.349.21-.511zm-2.41-5.153c.28 0 .515-.047.725-.116.21-.07.375-.186.515-.302.14-.14.234-.278.304-.464.07-.186.094-.395.094-.604 0-.44-.14-.812-.398-1.067-.28-.256-.678-.395-1.216-.395-.538 0-.96.14-1.217.395-.28.255-.397.626-.397 1.067 0 .21.023.418.093.604s.164.348.304.464c.14.14.304.232.515.302.21.07.398.116.678.116zM27.322 1.842c0 .186-.047.372-.117.534-.07.163-.187.302-.304.441-.117.14-.28.232-.445.302-.163.07-.35.116-.56.116-.188 0-.375-.047-.539-.116-.164-.07-.327-.163-.444-.302-.117-.116-.234-.278-.304-.44-.07-.163-.117-.35-.117-.535 0-.185.046-.371.117-.557.07-.162.163-.325.304-.44.117-.117.28-.233.444-.303.164-.07.35-.116.538-.116.187 0 .374.047.561.116.164.07.328.163.445.302.117.116.234.279.304.441.07.186.117.372.117.557zm-.327 2.646v9.1h-2.2v-9.1h2.2zM31.603 13.727c-.796 0-1.404-.233-1.825-.674-.42-.44-.631-1.067-.631-1.857v-5.06h-.936c-.117 0-.21-.046-.304-.116s-.14-.185-.14-.348v-.859l1.473-.232.468-2.483c.023-.117.07-.21.164-.279.093-.07.187-.093.327-.093h1.146v2.855h2.41v1.555h-2.41v4.921c0 .279.07.51.211.673.14.163.327.232.561.232.14 0 .258-.023.351-.046.094-.023.164-.07.234-.093.07-.046.14-.07.187-.093.047-.023.117-.046.164-.046.07 0 .117.023.164.046.047.024.093.093.14.14l.655 1.067c-.327.256-.702.465-1.1.604-.444.116-.865.186-1.31.186zM41.778 13.587h-.982c-.21 0-.374-.023-.491-.093-.117-.07-.21-.185-.258-.371l-.187-.65c-.234.209-.468.395-.678.534-.234.162-.445.279-.702.395-.234.116-.491.185-.749.232-.257.046-.56.07-.888.07-.398 0-.749-.047-1.076-.163-.328-.093-.609-.255-.843-.464-.233-.21-.42-.465-.538-.766-.117-.302-.187-.674-.187-1.068 0-.348.094-.673.281-1.021.187-.325.491-.627.912-.906.421-.278.983-.487 1.685-.673.701-.185 1.567-.255 2.62-.255v-.534c0-.603-.14-1.068-.398-1.37-.258-.301-.632-.44-1.123-.44-.35 0-.655.046-.889.116-.234.07-.444.185-.632.278-.187.093-.327.186-.49.279-.165.092-.305.116-.492.116-.14 0-.28-.047-.374-.116-.117-.07-.187-.163-.258-.279l-.397-.696c1.052-.952 2.316-1.44 3.813-1.44.538 0 1.006.093 1.427.256.42.186.771.418 1.076.72.28.301.514.673.655 1.114.14.44.233.905.233 1.416v5.78h-.07zm-4.28-1.37c.233 0 .444-.022.631-.069.187-.046.374-.093.538-.186.164-.092.328-.185.491-.301.164-.116.328-.256.468-.418V9.71c-.631 0-1.17.046-1.614.116-.42.07-.772.186-1.03.302-.256.116-.444.278-.56.44-.117.163-.164.349-.164.535 0 .394.117.673.35.835.211.21.515.279.89.279zM45.404.426L45.404 13.587 43.205 13.587 43.205.426zM59.51 7.18c0 .93-.164 1.811-.468 2.6-.304.79-.749 1.486-1.334 2.09-.561.58-1.263 1.044-2.058 1.37-.795.324-1.684.487-2.667.487-.982 0-1.871-.163-2.667-.488-.795-.325-1.497-.79-2.081-1.37-.585-.58-1.03-1.276-1.334-2.088-.304-.79-.468-1.672-.468-2.6 0-.929.164-1.81.468-2.6.304-.789.772-1.485 1.334-2.089.584-.58 1.263-1.044 2.081-1.37.796-.324 1.708-.487 2.667-.487.96 0 1.872.163 2.667.488.795.325 1.497.789 2.058 1.37.562.58 1.006 1.276 1.334 2.065.327.812.468 1.694.468 2.623zm-2.457 0c0-.695-.093-1.322-.28-1.902-.187-.558-.468-1.022-.82-1.416-.35-.395-.771-.697-1.286-.906-.514-.209-1.076-.301-1.707-.301-.632 0-1.193.092-1.708.301-.514.21-.936.511-1.286.906-.351.394-.632.858-.82 1.416-.186.557-.28 1.183-.28 1.903 0 .696.094 1.323.28 1.88.188.557.469 1.021.82 1.416.35.395.795.673 1.286.882.515.209 1.076.302 1.708.302.631 0 1.193-.093 1.707-.302.515-.209.936-.51 1.287-.882.35-.395.632-.859.819-1.416.187-.534.28-1.184.28-1.88zM66.831 6.415c-.07.093-.14.14-.187.186-.07.046-.164.07-.28.07-.118 0-.234-.024-.328-.094s-.234-.139-.374-.232c-.14-.093-.328-.162-.538-.232-.21-.07-.468-.093-.772-.093-.398 0-.725.07-1.03.21-.28.138-.538.347-.725.603-.187.255-.327.58-.444.951-.094.372-.14.79-.14 1.254 0 .487.046.905.163 1.3.094.371.258.696.445.951.187.256.444.441.725.58.28.14.585.21.936.21.35 0 .631-.047.842-.14.21-.093.397-.185.538-.278.14-.093.28-.21.397-.279.117-.07.234-.14.375-.14.187 0 .304.07.397.21l.632.789c-.234.279-.515.51-.795.72-.281.208-.585.348-.89.464-.303.116-.631.185-.958.232-.328.046-.655.07-.983.07-.561 0-1.1-.117-1.59-.325-.492-.21-.936-.511-1.31-.929-.375-.418-.679-.882-.89-1.485-.21-.58-.327-1.254-.327-1.997 0-.673.094-1.276.28-1.857.188-.58.469-1.067.843-1.485.374-.418.842-.743 1.403-.975.562-.232 1.193-.348 1.919-.348.678 0 1.286.116 1.8.325.515.209.983.534 1.38.928l-.514.836z" transform="translate(200.2 1.733) translate(46.784 4.634)"/>
                <path d="M71.814 4.35c.585 0 1.1.092 1.59.278.492.185.913.44 1.264.812.35.348.631.79.818 1.3.187.51.304 1.09.304 1.74 0 .163 0 .302-.023.419-.023.116-.047.185-.07.255-.047.07-.094.116-.164.14-.07.022-.14.046-.257.046h-5.661c.07.928.327 1.624.748 2.065.445.441 1.03.65 1.755.65.35 0 .655-.046.936-.116.257-.093.49-.185.678-.278.187-.093.374-.186.515-.279.14-.093.28-.116.42-.116.094 0 .164.023.235.047.07.046.117.092.163.139l.632.789c-.234.279-.515.51-.819.72-.304.208-.631.348-.959.464-.327.116-.678.185-1.006.232-.35.046-.678.07-1.006.07-.631 0-1.24-.117-1.777-.325-.538-.21-1.03-.511-1.427-.929-.398-.418-.726-.928-.96-1.532-.233-.603-.35-1.3-.35-2.112 0-.627.093-1.207.304-1.741.21-.557.491-1.021.865-1.416.375-.394.842-.72 1.38-.952.562-.255 1.17-.37 1.872-.37zm.023 1.577c-.631 0-1.146.186-1.52.534-.375.372-.585.882-.702 1.532h4.14c0-.278-.046-.557-.117-.812-.07-.255-.187-.464-.35-.65-.164-.186-.375-.348-.609-.441-.21-.116-.514-.163-.842-.163zM83.86 13.587h-.982c-.21 0-.374-.023-.491-.093-.117-.07-.21-.185-.257-.371l-.187-.65c-.234.209-.468.395-.679.534-.234.162-.444.279-.702.395-.233.116-.49.185-.748.232-.257.046-.562.07-.889.07-.398 0-.749-.047-1.076-.163-.328-.093-.608-.255-.842-.464-.234-.21-.421-.465-.538-.766-.117-.302-.187-.674-.187-1.068 0-.348.093-.673.28-1.021.188-.325.492-.627.913-.906.42-.278.982-.487 1.684-.673.702-.185 1.567-.255 2.62-.255v-.534c0-.603-.14-1.068-.398-1.37-.257-.301-.631-.44-1.123-.44-.35 0-.655.046-.889.116-.233.07-.444.185-.631.278-.187.093-.328.186-.491.279-.164.092-.304.116-.492.116-.14 0-.28-.047-.374-.116-.117-.07-.187-.163-.257-.279l-.398-.696c1.053-.952 2.316-1.44 3.813-1.44.538 0 1.006.093 1.427.256.421.186.772.418 1.076.72.28.301.515.673.655 1.114.14.44.234.905.234 1.416v5.78h-.07zm-4.303-1.37c.234 0 .444-.022.631-.069.187-.046.374-.093.538-.186.164-.092.328-.185.491-.301.164-.116.328-.256.468-.418V9.71c-.631 0-1.17.046-1.614.116-.42.07-.772.186-1.029.302-.257.116-.444.278-.561.44-.117.163-.164.349-.164.535 0 .394.117.673.35.835.235.21.515.279.89.279zM85.124 13.587V4.488h1.357c.28 0 .467.14.561.395l.14.72c.188-.186.375-.372.585-.511.21-.163.421-.279.655-.395.234-.116.468-.209.725-.255.258-.07.538-.093.866-.093.491 0 .936.093 1.333.255.398.163.702.395.96.72.257.302.444.673.584 1.09.14.419.21.883.21 1.394v5.78h-2.198v-5.78c0-.557-.14-.975-.398-1.3-.257-.302-.655-.464-1.17-.464-.374 0-.748.092-1.076.255-.327.162-.655.394-.935.696v6.57h-2.2v.022z" transform="translate(200.2 1.733) translate(46.784 4.634)"/>
            </g>
        </g>
        <path fill="#6F6F6F" fill-rule="nonzero" d="M170.989 22.665l-.265-.71h-.372v1.051h.312v-.735h-.037l.272.735h.177l.272-.735h.044v.735h.208v-1.05h-.347l-.264.709zm-1.573-.5h.312v.841h.208v-.84h.312v-.21h-.832v.21zm-.432-11.21c-.769.219-1.42.568-1.953 1.049-.533.48-.954 1.071-1.235 1.77-.282.698-.436 1.475-.436 2.328v6.904h3.016v-6.904c0-.853.306-1.51.892-1.968.586-.457 1.373-.601 2.332-.43v-2.888c-.975-.124-1.847-.078-2.616.14zm-12.994 5.94c.015-.514.11-.979.286-1.398.175-.42.404-.78.685-1.083.282-.303.613-.54.994-.71.38-.171.792-.256 1.234-.256.487 0 .928.093 1.325.279.395.186.73.45 1.005.792l-5.529 2.375zm8.259-3.261c-.358-.621-.792-1.145-1.303-1.572-.51-.427-1.084-.753-1.724-.978-.64-.225-1.31-.338-2.01-.338-.838 0-1.622.167-2.353.501-.731.334-1.371.784-1.92 1.35-.548.567-.978 1.235-1.29 2.003-.313.769-.468 1.588-.468 2.457 0 .87.155 1.684.468 2.445.312.76.742 1.425 1.29 1.991.549.567 1.189 1.013 1.92 1.339.73.326 1.515.49 2.353.49 1.476 0 2.707-.376 3.689-1.13.982-.753 1.648-1.707 1.999-2.968h-3.221c-.26.525-.617.834-1.074 1.059-.457.225-.929.337-1.416.337-.518 0-.99-.112-1.417-.338-.426-.225-.792-.539-1.096-.943l8.315-3.563c-.137-.807-.385-1.521-.742-2.142zm-14.645 4.762c-.16.411-.377.769-.653 1.071-.275.303-.596.544-.963.722-.367.179-.757.268-1.17.268-.412 0-.802-.085-1.169-.256-.367-.17-.688-.408-.963-.71-.275-.303-.493-.66-.654-1.072-.16-.41-.24-.858-.24-1.339 0-.497.08-.955.24-1.374.161-.42.379-.783.654-1.094.275-.31.596-.551.963-.722.367-.17.757-.256 1.17-.256.412 0 .802.09 1.169.268.367.178.688.423.963.733.276.311.493.675.653 1.095.161.419.242.87.242 1.35 0 .466-.08.905-.242 1.316zm.26-6.23c-.936-.931-2.058-1.396-3.459-1.396-.776 0-1.509.163-2.186.49-.678.326-1.274.777-1.784 1.353-.51.575-.915 1.244-1.212 2.006-.297.762-.446 1.57-.446 2.426 0 .871.148 1.688.445 2.45.297.762.712 1.427 1.245 1.995.533.568 1.169 1.015 1.907 1.341.739.327 1.558.49 2.456.49.883 0 1.694-.163 2.433-.489.739-.326 1.374-.772 1.908-1.339.532-.566.957-1.23 1.254-1.99.297-.762.455-1.576.455-2.446V5.673h-3.016v6.494zm-10.931.082c-.45-.473-.997-.842-1.645-1.106-.647-.264-1.382-.396-2.204-.396-.808 0-1.535.136-2.182.408-.647.272-1.203.648-1.668 1.129-.465.481-.818 1.048-1.07 1.7-.25.652-.372 1.358-.372 2.12v6.903h3.016v-6.974c0-.683.209-1.234.635-1.653.427-.42.973-.629 1.643-.629.503 0 .897.086 1.187.256.289.172.51.38.662.629.152.249.24.5.287.757.045.256.058.47.058.64v6.974h3.016v-6.904c0-.792-.109-1.514-.345-2.166-.236-.652-.569-1.214-1.018-1.688zm-13.197 10.758h3.016V11.03h-3.016v11.976zm-2.547-3.225c-.373-.34-.573-.93-.573-1.77v-4.25h2.08v-2.73h-2.08V7.983H119.6v10.005c0 .822.114 1.564.343 2.224.228.66.563 1.214 1.005 1.664.441.45 1.003.777 1.658.978.655.202 1.362.257 2.298.164v-2.795c-.832.047-1.342-.1-1.715-.443zm3.33-13.76c.01.018.03.03.054.03.015 0 .03-.005.04-.014l.004-.003c.101-.085.191-.17.277-.264.828-.902.342-2.01.337-2.022-.024-.054-.008-.118.04-.152.047-.035.112-.032.155.009 2.803 2.62 2.062 4.617 2.007 4.751-.227.815-1.121 1.404-2.18 1.434h-.059c-1.252 0-2.29-.774-2.29-1.763v-.015c-.104-1.373 1.211-2.728 1.266-2.785.035-.036.077-.047.123-.027.047.02.07.067.069.118-.009.27.043.504.159.701l-.003.001z"/>
        <g fill="#6F6F6F" fill-rule="nonzero">
            <path d="M85.671 16.863L88.404 11.677 85.263 6.255 87.822 6.255 89.608 9.439 91.157 6.255 94.363 6.255 91.2 12.194 93.932 16.863 91.373 16.863 90.017 14.41 88.877 16.863zM34.995 18.132h.537c1.27 0 3.012-.15 3.012-4.561 0-4.691-1.764-4.842-3.012-4.842h-.537v9.403zM31.853 6.255h3.765c1.097 0 2.646 0 3.916.99 1.55 1.183 2.345 3.593 2.345 6.283 0 7.058-4.454 7.08-6.648 7.08h-3.378V6.254zM42.961 16.863V6.255h2.947v4.583c0 .818 0 3.27 2.173 3.27.108 0 .236 0 .494-.042v2.883c-.15.043-.3.065-.516.065-1.72 0-2.237-1.808-2.495-2.712v2.561H42.96zM53.3 15.034c.905 0 1.249-.732 1.249-3.465 0-2.84-.387-3.464-1.248-3.464-.882 0-1.27.646-1.27 3.464 0 2.604.302 3.465 1.249 3.465h.02zm0 2.066c-3.162 0-4.323-2.217-4.323-5.53 0-3.422 1.247-5.53 4.303-5.53 3.098 0 4.324 2.13 4.324 5.53 0 3.313-1.161 5.53-4.303 5.53zM61.383 12.602c0 .947 0 2.453 1.334 2.453 1.14 0 1.226-1.484 1.226-3.356 0-2.239-.107-3.551-1.313-3.551-1.247 0-1.247.904-1.247 2.432v2.022zm-2.905 4.261V2.661h2.905v4.368c.323-.344.86-.925 2.022-.925 3.378 0 3.593 4.088 3.593 5.595 0 1.786-.344 3.443-1.377 4.497-.516.516-1.312.818-2.022.818-1.442 0-2.023-1.054-2.388-1.743v1.592h-2.733zM70.78 13.119c0 .538 0 1.076.345 1.485.215.28.56.451.947.451.839 0 1.29-.71 1.29-3.507 0-2.733-.408-3.464-1.334-3.464-1.248 0-1.248 1.377-1.248 2.582v2.453zm-2.904 7.488V6.255h1.743c.236.753.344.968.56 1.377.257-.538.752-1.592 2.452-1.592.56 0 1.14.107 1.721.408 1.937 1.011 2.066 4.196 2.066 5.186 0 2.56-.818 5.38-3.422 5.38-1.269 0-1.849-.689-2.216-1.141v4.734h-2.904z" transform="matrix(1 0 0 -1 0 26)"/>
            <path d="M81.483 15.034c.903 0 1.247-.732 1.247-3.465 0-2.84-.387-3.464-1.247-3.464-.883 0-1.27.646-1.27 3.464 0 2.604.301 3.465 1.248 3.465h.022zm0 2.066c-3.163 0-4.325-2.217-4.325-5.53 0-3.422 1.248-5.53 4.303-5.53 3.098 0 4.324 2.13 4.324 5.53 0 3.313-1.162 5.53-4.302 5.53zM5.654 16.092l8.211-5.08-5.698-4.767-8.143 5.328 5.63 4.52-5.63 4.518 8.143 5.328 5.698-4.766-8.21-5.08zm8.211-5.08l5.699-4.767 8.143 5.328-5.63 4.52-8.212-5.082zm13.842 9.599l-8.143 5.328-5.699-4.766 8.211-5.08 5.631 4.518zM13.882 9.986L8.167 5.234l-2.445 1.6V5.04l8.16-4.904 8.16 4.904v1.794l-2.445-1.6-5.715 4.752z" transform="matrix(1 0 0 -1 0 26)"/>
        </g>
        <g fill-rule="nonzero">
            <path fill="#9B9B9B" d="M10.895 6.24c.773 0 1.222-.046 1.38-.046.19 0 .373.156.373.376 0 .064-.015.11-.03.15-.103.275-.57 1.263-1.44 2.111-.099.095-.21.113-.285.113h-.001c-.076 0-.187-.018-.285-.113-.87-.848-1.338-1.836-1.44-2.111-.015-.04-.03-.086-.03-.15 0-.22.182-.376.373-.376.158 0 .606.046 1.38.046h.005zm-2.652 8.7c-.058-.06-.144-.123-.288-.123-.184 0-.293.127-.335.19-1.038 1.583-1.574 3.077-1.648 4.578-.006.11.035.22.111.301.077.08.185.127.296.127h2.464c.212 0 .39-.166.406-.378.054-.723.279-1.449.688-2.21.142-.264.032-.512-.05-.618-.406-.529-.904-1.093-1.644-1.867zm9.965-9.91c-.072-.056-.159-.084-.247-.084-.048 0-.098.009-.144.027-.877.335-1.768.59-2.58.78-.166.039-.3.162-.356.31-.592 1.625-2.104 3.172-3.69 4.793-.064.06-.154.14-.299.14s-.233-.077-.298-.14c-1.586-1.62-3.098-3.162-3.69-4.787-.056-.148-.19-.272-.356-.31-.813-.19-1.706-.453-2.582-.789-.047-.018-.096-.027-.145-.027-.088 0-.173.028-.245.083-.112.086-.17.225-.157.359.135 1.35.667 2.672 1.63 4.056.904 1.301 2.083 2.506 3.223 3.67 2.101 2.147 4.086 4.175 4.26 6.526.016.212.192.376.405.376h2.468c.111 0 .218-.046.294-.127.077-.08.117-.189.112-.3-.078-1.572-.668-3.146-1.806-4.811-.238-.35-.493-.69-.76-1.022-.108-.136-.063-.304.02-.389l.247-.252c1.14-1.165 2.32-2.37 3.224-3.671.962-1.385 1.495-2.698 1.63-4.049.013-.135-.049-.28-.158-.363zM21.685.302c-.097-.13-.25-.207-.412-.207-.084 0-.166.021-.238.06-3.026 1.66-6.533 2.537-10.143 2.538C7.282 2.693 3.775 1.816.75.157.677.117.595.097.512.097.35.096.196.172.099.302c-.143.19-.147.51.097.701C1.71 2.136 3.38 3.02 5.16 3.624c1.844.626 3.773.944 5.731.945h.002c1.959 0 3.887-.319 5.731-.945 1.78-.605 3.45-1.488 4.967-2.621.242-.19.237-.51.094-.7z" transform="translate(368.333 2.6)"/>
            <path fill="#6F6F6F" d="M27.59 5.502c-.048-.156-.193-.263-.357-.263h-3.499c-.164 0-.308.106-.358.263l-4.414 14.024c-.036.114-.016.238.055.335.07.097.183.153.302.153h2.41c.165 0 .312-.11.359-.269l3.04-10.314s.08-.257.355-.257c.28 0 .348.268.348.268l1.41 4.89h-1.894c-.168 0-.316.112-.361.274l-.544 1.936c-.032.114-.009.235.062.329.071.094.182.148.3.148h3.226l.85 2.731c.049.157.194.264.358.264h2.41c.12 0 .232-.057.302-.153.07-.097.091-.221.056-.335L27.59 5.502zM38.086 17.853c-.016-.104-.075-.197-.162-.256-.088-.059-.197-.078-.3-.052-.39.097-.765.151-1.054.151-.548 0-.792-.238-.792-.772V11.55h2.15c.208 0 .376-.169.376-.376V9.499c0-.207-.168-.375-.375-.375h-2.151V6.536c0-.108-.047-.212-.13-.283-.081-.071-.19-.104-.297-.089l-2.215.31c-.185.025-.323.184-.323.371v2.279h-1.207c-.207 0-.375.168-.375.375v1.676c0 .207.168.376.375.376h1.207v5.72c0 1.964 1.03 2.96 3.064 2.96.578 0 1.56-.133 2.203-.357.171-.06.275-.232.248-.41l-.242-1.61zM42.186 4.966h-2.214c-.207 0-.375.168-.375.376v14.297c0 .207.168.375.375.375h2.214c.207 0 .375-.168.375-.375V5.342c0-.208-.168-.376-.375-.376zM47.882 8.907c-1.122 0-2.486.177-3.476.451-.185.051-.301.233-.27.422l.258 1.61c.017.1.073.19.156.248.083.059.186.08.286.06.921-.179 1.872-.277 2.677-.277 1.599 0 1.855.338 1.855 1.423v.946h-2.375c-2.269 0-3.237.937-3.237 3.134 0 2.102 1.062 3.307 2.912 3.307 1.071 0 2.143-.297 3.044-.841l.095.348c.044.163.192.277.362.277h1.788c.207 0 .375-.169.375-.376v-6.752c0-2.902-1.206-3.98-4.45-3.98zm1.486 7.114v1.307c-.368.196-1.033.477-1.833.477-.69 0-.9-.211-.9-.903 0-.672.13-.88.943-.88h1.79zM57.882 13.274c-1.374-.355-1.374-.37-1.374-1.125 0-.507.05-.75 1.183-.75.775 0 1.92.136 2.655.262.101.017.205-.008.287-.07.082-.06.136-.153.148-.255l.209-1.69c.023-.191-.1-.369-.287-.413-.85-.198-2.033-.326-3.012-.326-3.406 0-4.104 1.288-4.104 3.22 0 2.126.394 2.84 3.004 3.478 1.719.414 1.719.722 1.719 1.232 0 .67-.058.902-1.183.902-.906 0-1.954-.14-2.876-.387-.102-.027-.21-.01-.298.046s-.149.146-.168.25l-.293 1.604c-.033.185.075.367.254.425 1.005.326 2.45.554 3.511.554 3.298 0 3.974-1.382 3.974-3.459 0-2.293-.406-2.718-3.349-3.498zM66.44 13.274c-1.374-.355-1.374-.37-1.374-1.125 0-.507.05-.75 1.183-.75.775 0 1.92.136 2.655.262.101.017.205-.008.287-.07.082-.06.136-.153.148-.255l.21-1.69c.022-.191-.101-.369-.288-.413-.85-.198-2.032-.326-3.012-.326-3.406 0-4.104 1.288-4.104 3.22 0 2.126.394 2.84 3.005 3.478 1.718.414 1.718.722 1.718 1.232 0 .67-.057.902-1.183.902-.905 0-1.954-.14-2.876-.387-.101-.027-.209-.01-.297.046-.089.056-.15.146-.168.25l-.293 1.604c-.034.185.074.367.253.425 1.006.326 2.45.554 3.511.554 3.299 0 3.974-1.382 3.974-3.459 0-2.293-.406-2.718-3.349-3.498zM73.608 4.965h-2.215c-.207 0-.375.168-.375.376v1.961c0 .208.168.376.375.376h2.215c.207 0 .375-.168.375-.376V5.341c0-.208-.168-.376-.375-.376zM73.608 9.124h-2.215c-.207 0-.375.168-.375.375v10.14c0 .207.168.375.375.375h2.215c.207 0 .375-.168.375-.375V9.499c0-.207-.168-.375-.375-.375zM79.359 8.907c-1.122 0-2.486.177-3.476.451-.185.051-.301.233-.27.422l.259 1.61c.016.1.072.19.155.248.083.059.186.08.286.06.921-.179 1.872-.277 2.677-.277 1.599 0 1.855.338 1.855 1.423v.946H78.47c-2.269 0-3.237.937-3.237 3.134 0 2.102 1.062 3.307 2.913 3.307 1.07 0 2.142-.297 3.043-.841l.095.348c.045.163.193.277.362.277h1.788c.207 0 .375-.169.375-.376v-6.752c0-2.902-1.206-3.98-4.45-3.98zm1.486 7.114v1.307c-.367.196-1.032.477-1.833.477-.69 0-.9-.211-.9-.903 0-.672.13-.88.944-.88h1.789zM92.001 8.907c-1.174 0-2.772.405-4.123 1.04l-.162-.553c-.047-.16-.193-.27-.36-.27h-1.64c-.207 0-.375.168-.375.375v10.14c0 .207.168.375.375.375h2.215c.207 0 .375-.168.375-.375v-7.023c.797-.406 1.919-.827 2.59-.827.5 0 .685.186.685.686v7.164c0 .207.168.375.375.375h2.214c.207 0 .375-.168.375-.375v-7.447c0-2.18-.855-3.285-2.544-3.285z" transform="translate(368.333 2.6)"/>
        </g>
        <g transform="translate(491.4 .867)">
            <mask id="prefix__b" fill="#fff">
                <use xlink:href="#prefix__a"/>
            </mask>
            <path fill="#6F6F6F" fill-rule="nonzero" d="M81.28 9.67c-1.954-.717-2.389-.912-2.389-1.586 0-.63.413-.978 1.086-.978 1.585 0 3.56 1.065 3.56 1.065l.89-2.086s-1.454-1.326-4.233-1.326c-2.996 0-4.559 1.587-4.559 3.673 0 1.543.76 2.955 3.256 3.781 1.933.63 2.302 1.087 2.302 1.695 0 .76-.565 1.108-1.433 1.108-1.802 0-3.908-1.369-3.908-1.369l-1.064 2.13s2.128 1.717 4.972 1.717c3.17 0 4.82-1.587 4.82-3.912-.022-1.782-.478-2.89-3.3-3.911zm47.76 4.39V4.455h-3.191v9.91c0 2.173 1.28 2.977 2.692 2.977 1.085 0 1.65-.305 1.65-.305l.195-2.281s-1.346.76-1.346-.696zm-26.29 0v-3.216c0-1.434-.5-2.347-2.019-2.347-1.216 0-2.323.63-2.887 1.673V4.455h-3.192v12.626h3.192v-2.999c0-2.76.868-3.542 1.346-3.542.347 0 .499.239.499.826v3.02c0 2.173 1.216 2.977 2.627 2.977 1.085 0 1.65-.304 1.65-.304l.195-2.282c0-.021-1.411.652-1.411-.717zM55.011 15.3c-.738 0-1.346-.87-1.346-2.39 0-1.5.608-2.391 1.346-2.391.738 0 1.346.87 1.346 2.39 0 1.522-.608 2.391-1.346 2.391zm4.538-1.239V4.455h-3.192v5.411c-.63-.89-1.563-1.369-2.605-1.369-1.91 0-3.452 1.652-3.452 4.433 0 2.782 1.542 4.433 3.452 4.433 1.15 0 2.171-.586 2.8-1.673.413 1.195 1.412 1.673 2.497 1.673 1.086 0 1.65-.304 1.65-.304l.196-2.282c-.022-.021-1.346.74-1.346-.717zm6.751-3.629c.478 0 .717.413.717.826 0 .76-.5 1.195-2.063 1.282.109-1.347.673-2.108 1.346-2.108zm.282 4.868c-.803 0-1.324-.456-1.541-1.37 2.8.088 4.537-1.064 4.537-2.737 0-1.608-1.476-2.695-3.278-2.695-2.583 0-4.69 1.652-4.69 4.433 0 2.782 1.868 4.433 4.451 4.433 2.475 0 3.93-1.868 3.93-1.868l-.869-1.413s-1.237 1.217-2.54 1.217zm53.405.13c-.738 0-1.346-.912-1.346-2.499 0-1.586.608-2.499 1.346-2.499.738 0 1.346.913 1.346 2.5.022 1.564-.586 2.498-1.346 2.498zm0-6.932c-2.583 0-4.69 1.652-4.69 4.433 0 2.782 2.107 4.433 4.69 4.433 2.584 0 4.69-1.651 4.69-4.433.021-2.781-2.085-4.433-4.69-4.433zm-10.42 6.932c-.738 0-1.346-.912-1.346-2.499 0-1.586.608-2.499 1.346-2.499.738 0 1.346.913 1.346 2.5.021 1.564-.586 2.498-1.346 2.498zm0-6.932c-2.584 0-4.69 1.652-4.69 4.433 0 2.782 2.106 4.433 4.69 4.433 2.583 0 4.689-1.651 4.689-4.433.022-2.781-2.084-4.433-4.69-4.433zm-65.02 6.932c-.738 0-1.346-.912-1.346-2.499 0-1.586.608-2.499 1.346-2.499.739 0 1.346.913 1.346 2.5 0 1.564-.607 2.498-1.346 2.498zm0-6.932c-2.583 0-4.689 1.652-4.689 4.433 0 2.782 2.106 4.433 4.69 4.433 2.583 0 4.689-1.651 4.689-4.433 0-2.781-2.106-4.433-4.69-4.433zm46.437 2.195c.52 0 .998.195 1.346.543l.716-2.064c-.76-.457-1.672-.696-2.67-.696-2.584 0-4.69 1.652-4.69 4.434 0 2.781 2.106 4.433 4.69 4.433.998 0 1.91-.24 2.67-.696l-.716-2.064c-.348.348-.825.543-1.346.543-1.086 0-1.954-.652-1.954-2.216 0-1.565.868-2.217 1.954-2.217zM36.515 14.82c-1.997 0-3.235-1.195-3.235-3.694 0-2.5 1.238-3.695 3.235-3.695.738 0 1.476.24 2.128.63l1.237-2.39c-1.086-.565-2.323-.891-3.582-.891-3.778 0-6.513 2.325-6.513 6.346 0 4.02 2.714 6.345 6.513 6.345 1.085 0 2.15-.239 3.104-.652l-1.215-2.369c-.543.24-1.108.37-1.672.37z" mask="url(#prefix__b)"/>
            <g>
                <mask id="prefix__d" fill="#fff">
                    <use xlink:href="#prefix__c"/>
                </mask>
                <path fill="#6F6F6F" fill-rule="nonzero" d="M127.347 22.057c0-.912.694-1.651 1.65-1.651.564 0 .911.152 1.237.435l-.434.521c-.24-.196-.456-.326-.825-.326-.5 0-.912.456-.912.978 0 .587.39 1 .955 1 .26 0 .478-.066.651-.196v-.456h-.694v-.544h1.367v1.37c-.325.282-.781.5-1.346.5-.976 0-1.65-.696-1.65-1.63zm-3.713-1.586h.652l1.476 1.956V20.47h.695v3.173h-.587l-1.541-2.021v2.02h-.695v-3.172zm-1.758 0h.695v3.173h-.695V20.47zm-1.65 1.586c0-.543-.39-1-.955-1s-.955.435-.955.979c0 .543.39 1 .955 1 .564.021.955-.435.955-.979zm-2.627 0c0-.912.717-1.651 1.693-1.651.977 0 1.672.739 1.672 1.63 0 .89-.716 1.63-1.693 1.63-.977.021-1.672-.696-1.672-1.609zm-2.974-.956v1.913h.543c.564 0 .955-.392.955-.957s-.39-.956-.955-.956h-.543zm-.695-.63h1.238c.998 0 1.693.674 1.693 1.586 0 .891-.695 1.587-1.693 1.587h-1.238V20.47zm-4.255 1.912l-1.215-1.912h.824l.76 1.282.76-1.282h.782l-1.216 1.912v1.26h-.695v-1.26zm-2.8-.065h-.803v.696h.824c.304 0 .5-.109.5-.348-.022-.217-.174-.348-.521-.348zm.325-.912c0-.218-.173-.326-.456-.326h-.694v.673h.651c.304 0 .5-.108.5-.347zm-1.823-.935h1.476c.37 0 .651.109.825.283.152.152.217.326.217.543 0 .348-.195.565-.412.674.369.13.586.347.586.782 0 .587-.478.87-1.194.87h-1.498V20.47zm-5.47 0h.65l1.477 1.956V20.47h.694v3.173h-.586l-1.541-2.021v2.02h-.695v-3.172zm-2.128 1.543c.347 0 .542-.174.542-.456 0-.305-.217-.457-.542-.457h-.695v.913h.695zm-1.412-1.543h1.455c.412 0 .716.109.933.326.174.174.283.435.283.717 0 .522-.283.826-.673.978l.781 1.13h-.825l-.673-1.021h-.542v1.021h-.695v-3.15h-.044zm-2.019 1.847l-.412-1.021-.412 1.021h.824zm-.738-1.869h.652l1.367 3.195h-.76l-.282-.717h-1.346l-.282.717h-.716l1.367-3.195zm-4.385.022h2.388v.63H89.92v.652h1.498v.63H89.92v.674h1.715v.63h-2.41v-3.216zm-3.083 0h.695v2.543h1.585v.63h-2.28V20.47z" mask="url(#prefix__d)"/>
            </g>
            <path fill="#6F6F6F" fill-rule="nonzero" d="M10.464 14.995l-3.43-3.238 3.43-3.217V5.52l-6.621 6.237 6.62 6.258v-3.02zm2.562-9.475v3.02l3.43 3.217-3.43 3.238v3.02l6.62-6.258-6.62-6.237z"/>
            <path fill="#6F6F6F" fill-rule="nonzero" d="M11.745 21.406c-5.32 0-9.64-4.325-9.64-9.65 0-5.323 4.32-9.626 9.64-9.626 5.318 0 9.639 4.324 9.639 9.648 0 5.325-4.32 9.628-9.64 9.628zm0-21.384C5.275.022 0 5.28 0 11.757c0 6.476 5.254 11.756 11.745 11.756 6.49 0 11.744-5.259 11.744-11.756C23.49 5.259 18.236.022 11.745.022z"/>
        </g>
        <g fill-rule="nonzero">
            <path fill="#6F6F6F" d="M54.42 5.488v5.024c-.004 1.36-.321 2.41-.941 3.118-.615.703-1.446 1.06-2.47 1.06-.571 0-1.062-.122-1.458-.362-.407-.247-.744-.568-1.004-.955-.264-.396-.463-.85-.591-1.35-.128-.5-.194-1.01-.195-1.516v-5.02h-.986v5.022l.003.315h.005c.025.558.114 1.1.265 1.613.182.623.451 1.18.8 1.654.355.482.802.871 1.33 1.158.534.289 1.15.435 1.832.435 1.048 0 1.927-.285 2.615-.848.31-.255.576-.548.795-.879v.817c-.027 1.826-1.52 3.313-3.33 3.314H49.9v.996h1.192l.313-.003v-.01c2.223-.166 4-2.077 4.003-4.35V5.488h-.987M41.417 1.934L42.403 1.934 42.403 15.481 41.417 15.481zM44.49 1.934L45.475 1.934 45.475 15.481 44.49 15.481zM32.771 8.588c.188-.48.436-.896.738-1.233.296-.333.646-.59 1.039-.763.394-.175.825-.263 1.28-.263.546 0 1.03.102 1.439.302.409.202.755.48 1.03.826.277.353.49.77.634 1.243.116.385.187.79.21 1.21h-6.68c.051-.483.155-.927.31-1.322zm6.27 3.336c-.145.925-.504 1.624-1.071 2.079-.58.464-1.324.7-2.213.7-.605 0-1.118-.104-1.526-.31-.406-.205-.741-.489-.997-.843-.262-.365-.46-.801-.586-1.296-.107-.417-.174-.87-.202-1.35h7.677l.012-.304c.024-.667-.042-1.318-.198-1.935-.158-.627-.416-1.192-.766-1.681-.357-.497-.82-.9-1.379-1.197-.562-.3-1.235-.453-2-.453-.554 0-1.103.119-1.63.352-.529.234-.999.58-1.397 1.028-.395.444-.716.992-.955 1.627-.24.637-.36 1.369-.36 2.175 0 .71.081 1.385.243 2.006.164.633.422 1.193.767 1.664.352.48.81.857 1.363 1.12.524.249 1.152.375 1.868.375l.101-.001c1.12 0 2.08-.326 2.85-.968.777-.647 1.242-1.565 1.383-2.728l.008-.06h-.992zM29.538 10.423l-.008.199c-.001.056-.003.103-.005.127-.042.568-.165 1.116-.376 1.676-.298.797-.863 1.474-1.548 1.858-.348.195-.645.312-.934.368-.279.053-.596.065-.97.037-.715-.055-1.404-.288-1.99-.673-.36-.236-.625-.457-.828-.69v-2.818c.001-1.37.318-2.427.942-3.14.615-.703 1.446-1.06 2.47-1.06.572 0 1.063.122 1.46.362.405.246.742.567 1.002.955.265.397.464.851.591 1.349.122.479.188.97.194 1.45zm.988.083c0-.675-.093-1.33-.273-1.946-.183-.624-.452-1.18-.801-1.655-.356-.482-.803-.872-1.33-1.157-.533-.29-1.15-.436-1.832-.436-1.047 0-1.927.286-2.615.849-.31.254-.577.549-.796.88V1.912h-.985v11.806l.051.058c.293.334.654.714 1.11 1.006.464.296.97.528 1.506.69.507.153.998.23 1.467.23.244 0 .483-.02.714-.063.82-.147 1.587-.53 2.16-1.08 1.015-.972 1.622-2.487 1.624-4.052h-.204.204z" transform="translate(650 3.467)"/>
            <path fill="#FFF" d="M3.804 3.963L13.881 3.963 13.881 14.141 3.804 14.141z" transform="translate(650 3.467)"/>
            <path fill="#6F6F6F" d="M11.283 12.302c.358.088.527.348.545.724h-1.243c-.144 0-.26-.12-.26-.268v-.007s-.054-1.167-.059-1.344c-.017.07-.592 1.753-2.515 1.885-1.782.099-2.67-1.268-2.752-1.473-.178.118-.15.483-.15.483.333.069.525.348.572.722l-1.264.002c-.144 0-.261-.12-.261-.268 0 0-.098-1.685-.029-3.263.076-1.716.463-2.12.55-2.237.12 1.4 1.124 1.997 2.202 1.997 1.364 0 2.47-1.135 2.47-2.535 0-.775-.339-1.468-.872-1.933l-.011-.011c1.045-.29 1.405.44 1.405.44.367-.681.982-.522.982-.522-.229.913-.198.876-.198.876.712-.052 1.144.522 1.144.522 1.606-.499 2.148-.67 2.148-.67.458 1.41-.358 2.652-1.2 3-1.033.429-1.173 1.04-1.246 1.794-.038.385-.082.873.042 2.086zM15.226.384H1.94C.869.384 0 1.262 0 2.342v13.42c0 1.08.87 1.958 1.939 1.958h13.287c1.07 0 1.939-.878 1.939-1.958V2.342c0-1.08-.87-1.958-1.939-1.958z" transform="translate(650 3.467)"/>
        </g>
    </g>
</svg>
