<svg xmlns="http://www.w3.org/2000/svg" width="16" height="16" viewBox="0 0 16 16">
    <g fill="none" fill-rule="evenodd" stroke="#000" stroke-width=".8">
        <path fill-rule="nonzero" d="M.269 13.126h.099l12.074-5.058c.073-.034.125-.1.14-.18.014-.078-.01-.16-.065-.217L5.475.63C5.418.574 5.336.55 5.258.565c-.079.015-.146.066-.18.14L.022 12.802c-.033.076-.026.164.018.234.045.07.122.112.205.113l.025-.024zM12.986.467l1.205.364-.863.908.296 1.228-1.228-.296-.908.863-.363-1.205-1.205-.363.863-.909-.296-1.227 1.227.295.909-.862.363 1.204z" transform="translate(1 2)"/>
        <path stroke-linecap="square" d="M3.984 4.272L8.933 9.222M2.527 7.559L5.709 10.741" transform="translate(1 2)"/>
    </g>
</svg>
