<svg xmlns="http://www.w3.org/2000/svg" width="42" height="32" viewBox="0 0 42 32">
    <g fill="none" fill-rule="evenodd" stroke="#000" stroke-linecap="round" stroke-width="1.2" transform="translate(1 1)">
        <path d="M25.369 24.32v5.244c0 .213-.084.417-.233.568-.149.15-.35.235-.561.235H.825c-.217.009-.428-.073-.584-.226-.156-.153-.243-.364-.241-.583v-5.239c0-4.232 5.681-7.661 12.681-7.661 7 0 12.688 3.429 12.688 7.661z"/>
        <ellipse cx="12.681" cy="6.858" rx="6.831" ry="6.858"/>
        <path d="M28.531 21.124c.897-.17 1.807-.252 2.719-.246 4.85 0 8.75 2.372 8.75 5.308v3.63c0 .308-.246.558-.55.558H28.519"/>
        <ellipse cx="31.219" cy="14.089" rx="4.388" ry="4.41"/>
    </g>
</svg>
