<svg xmlns="http://www.w3.org/2000/svg" width="14" height="14" viewBox="0 0 14 14">
    <path d="M6.367 5.158h2.187l.3-1.195c.048-.197.248-.317.446-.268.197.05.317.25.268.447l-.254 1.016h.633c.204 0 .369.165.369.368 0 .204-.165.369-.369.369H9.13l-.553 2.21h1.37c.204 0 .369.165.369.369 0 .203-.165.368-.369.368H8.393l-.299 1.195c-.05.197-.25.317-.447.268-.197-.05-.317-.25-.268-.447l.254-1.016H5.446l-.3 1.195c-.048.197-.248.317-.446.268-.197-.05-.317-.25-.268-.447l.254-1.016h-.633c-.204 0-.369-.165-.369-.368 0-.204.165-.369.369-.369h.817l.553-2.21h-1.37c-.204 0-.369-.165-.369-.369 0-.203.165-.368.369-.368h1.554l.299-1.195c.05-.197.25-.317.447-.268.197.05.317.25.268.447l-.254 1.016zm-.185.737l-.552 2.21h2.188l.552-2.21H6.182zM13.263 7C13.263 3.54 10.46.737 7 .737 3.54.737.737 3.54.737 7c0 3.46 2.804 6.263 6.263 6.263 3.46 0 6.263-2.804 6.263-6.263zM14 7c0 3.866-3.134 7-7 7s-7-3.134-7-7 3.134-7 7-7 7 3.134 7 7z"/>
</svg>
