<svg xmlns="http://www.w3.org/2000/svg" width="50" height="47" viewBox="0 0 50 47">
    <g fill="none" fill-rule="evenodd">
        <path stroke="#000" stroke-width="1.2" d="M29.809 43.538c7.078-1.918 12.749-7.256 15.13-14.13m.292-12.793l.11-.428C42.736 6.85 34.168 0 24 0 13.857 0 5.306 6.817 2.678 16.119l.091.496" transform="translate(1 1)"/>
        <path stroke="#000" stroke-width="1.2" d="M44.882 16.615h.698c.719 0 1.07.093 1.397.268.326.174.582.43.756.756.174.325.267.678.267 1.396v8.083c0 .72-.093 1.071-.267 1.397-.174.326-.43.582-.756.756-.326.175-.678.267-1.397.267h-.698c-.72 0-1.071-.092-1.397-.267-.326-.174-.582-.43-.756-.756-.175-.326-.267-.678-.267-1.397v-8.083c0-.718.092-1.07.267-1.396.174-.326.43-.582.756-.756.326-.175.678-.268 1.397-.268zM30.031 43.438c0 1.02-.827 1.846-1.846 1.846h-8.308c-1.02 0-1.846-.826-1.846-1.846s.827-1.846 1.846-1.846h8.308c1.02 0 1.846.827 1.846 1.846zM2.42 16.615h.698c.72 0 1.071.093 1.397.268.326.174.582.43.756.756.175.325.267.678.267 1.396v8.083c0 .72-.092 1.071-.267 1.397-.174.326-.43.582-.756.756-.326.175-.678.267-1.397.267H2.42c-.719 0-1.07-.092-1.397-.267-.326-.174-.582-.43-.756-.756C.093 28.19 0 27.837 0 27.118v-8.083c0-.718.093-1.07.267-1.396.174-.326.43-.582.756-.756.326-.175.678-.268 1.397-.268z" transform="translate(1 1)"/>
        <path fill="#000" fill-rule="nonzero" d="M22.61 29.538h-9.342v-.997c4.82-3.886 8.046-6.646 8.046-9.384 0-2.039-1.677-2.888-3.227-2.888-1.762 0-3.12.765-3.885 1.847l-.828-.764c.998-1.359 2.718-2.187 4.713-2.187 2.08 0 4.459 1.19 4.459 3.992 0 3.12-3.291 5.965-7.389 9.277h7.452v1.104zm10.487 0h-1.21v-3.864h-6.709v-1.082l6.285-9.214h1.634v9.192h2.081v1.104h-2.08v3.864zm-1.21-4.968v-7.982l-5.456 7.982h5.456z" transform="translate(1 1)"/>
    </g>
</svg>
