<svg xmlns="http://www.w3.org/2000/svg" width="33" height="50" viewBox="0 0 33 50">
    <g fill="none" fill-rule="evenodd" stroke="#000" stroke-width="1.2">
        <path fill-rule="nonzero" d="M22.55 42.824H8.45c-.277 0-.5-.229-.5-.51V40.97c0-3.129-1.107-6.224-3.2-8.95-2.274-2.963-3.26-6.677-2.773-10.455.8-6.225 5.82-11.254 11.938-11.959 3.94-.453 7.737.77 10.673 3.45 2.895 2.642 4.557 6.431 4.557 10.394 0 3.081-.968 6.001-2.8 8.444-2.155 2.874-3.294 6.114-3.294 9.367v1.051c0 .282-.224.51-.5.51z" transform="translate(1 1)"/>
        <path fill-rule="nonzero" d="M20.813 42.313v.261C20.813 45.566 18.43 48 15.5 48h0c-2.93 0-5.313-2.434-5.313-5.426v-.26" transform="translate(1 1)"/>
        <path stroke-linecap="round" d="M28 10.213L31 7.149M16 5.106L16 0M3 10.213L0 7.149" transform="translate(1 1)"/>
    </g>
</svg>
