<svg xmlns="http://www.w3.org/2000/svg" width="12" height="12" viewBox="0 0 12 12">
    <g fill="#FFF">
        <path d="M5.998 1.08c1.602 0 1.791.007 2.424.036.585.026.902.124 1.114.206.26.096.496.25.69.449.199.193.352.43.448.69.082.211.18.529.207 1.113.028.633.035.823.035 2.424 0 1.602-.007 1.791-.035 2.424-.027.585-.125.902-.207 1.114-.202.523-.615.936-1.138 1.138-.212.082-.53.18-1.114.207-.632.028-.822.035-2.424.035-1.602 0-1.791-.007-2.424-.035-.584-.027-.902-.125-1.113-.207-.261-.096-.497-.25-.69-.449-.2-.193-.353-.429-.449-.69-.082-.21-.18-.528-.206-1.113-.03-.632-.035-.822-.035-2.424 0-1.601.006-1.791.035-2.424.026-.584.124-.902.206-1.113.096-.26.25-.497.449-.69.193-.2.43-.353.69-.449.211-.082.529-.18 1.113-.206.633-.03.823-.035 2.424-.035zm0-1.08C4.37 0 4.165.007 3.525.036c-.638.03-1.074.13-1.456.279-.4.15-.763.387-1.062.692-.305.3-.542.662-.692 1.062-.148.382-.25.818-.279 1.456C.006 4.165 0 4.37 0 5.998c0 1.63.007 1.833.036 2.473.03.639.13 1.075.279 1.456.15.4.387.763.692 1.062.3.306.662.542 1.062.692.382.149.818.25 1.456.28.64.028.844.035 2.473.035 1.63 0 1.834-.007 2.473-.036.639-.029 1.075-.13 1.456-.279.806-.311 1.443-.948 1.754-1.754.149-.381.25-.817.28-1.456.028-.64.035-.844.035-2.473s-.007-1.833-.036-2.473c-.029-.638-.13-1.074-.279-1.456-.15-.4-.386-.763-.691-1.062-.3-.305-.663-.542-1.063-.692C9.546.167 9.11.065 8.471.036 7.831.006 7.627 0 5.998 0z"/>
        <path d="M5.998 2.918c-1.701 0-3.08 1.379-3.08 3.08s1.379 3.08 3.08 3.08 3.08-1.379 3.08-3.08-1.379-3.08-3.08-3.08zm0 5.08c-1.104 0-2-.896-2-2s.896-2 2-2 2 .896 2 2-.896 2-2 2z"/>
        <circle cx="9.2" cy="2.796" r="1"/>
    </g>
</svg>
