<svg xmlns="http://www.w3.org/2000/svg" width="12" height="16" viewBox="0 0 12 16">
    <g fill="none">
        <path stroke="#000" stroke-width=".8" d="M5.202 0C2.329 0 0 2.33 0 5.202c0 3.675 3.738 7.349 4.876 8.384.177.16.474.16.651 0 1.139-1.035 4.876-4.71 4.876-8.384C10.403 2.329 8.075 0 5.202 0z" transform="translate(1 1)"/>
        <path fill="#000" d="M5.301 6.477c-.743 0-1.346-.603-1.346-1.346 0-.743.603-1.346 1.346-1.346.743 0 1.346.603 1.346 1.346 0 .743-.602 1.346-1.346 1.346z" transform="translate(1 1)"/>
    </g>
</svg>
