<svg xmlns="http://www.w3.org/2000/svg" width="20" height="17" viewBox="0 0 20 17">
    <path fill="#E31F3D" d="M19.385 1.688c-3 2.25-4.963 5.807-4.963 8.62l.75-.094c.81-.001 1.587.328 2.15.912.563.584.864 1.371.834 2.181.011.797-.299 1.564-.86 2.128-.562.565-1.328.88-2.124.872-1.969 0-3.646-1.781-3.646-4.968 0-4.688 2.813-9.183 5.807-11.339l2.052 1.688zm-11.526 0c-3 2.25-4.968 5.807-4.968 8.62l.75-.094c.814-.007 1.596.32 2.163.904.568.585.872 1.375.842 2.19.011.798-.301 1.568-.866 2.133s-1.335.878-2.134.866C1.677 16.307 0 14.526 0 11.34 0 6.65 2.812 2.156 5.807 0L7.86 1.688z"/>
</svg>
