<svg xmlns="http://www.w3.org/2000/svg" width="38" height="38" viewBox="0 0 38 38">
    <g fill="none" fill-rule="evenodd" transform="translate(1 1)">
        <circle cx="18" cy="18" r="18" stroke="#000" stroke-width="1.2"/>
        <path fill="#000" fill-rule="nonzero" d="M17.502 26.79c1.233 0 2.178-.324 2.835-.971s.985-1.516.985-2.607c0-.89-.192-1.637-.576-2.244-.384-.606-.859-1.101-1.425-1.485-.084-.057-.172-.115-.264-.174l1.115-1.114c.149.092.29.183.423.272.646.435 1.192 1.031 1.637 1.789.444.758.667 1.703.667 2.835 0 1.414-.43 2.566-1.289 3.456-.859.889-1.986 1.414-3.38 1.576v3.001h-1.273v-3.001c-.97-.08-1.895-.334-2.774-.758-.718-.347-1.366-.76-1.942-1.242l.963-.963c1.385 1.086 2.818 1.63 4.298 1.63zm.728-21.707v3.001c.89.06 1.657.278 2.304.652.647.374 1.273.884 1.88 1.53l-.91.94c-.647-.646-1.238-1.11-1.773-1.394-.536-.283-1.228-.424-2.077-.424-1.01 0-1.84.318-2.486.955-.647.636-.97 1.45-.97 2.44 0 .748.172 1.374.515 1.88.344.505.773.924 1.289 1.258.199.129.424.264.675.406l-1.08 1.08c-.328-.193-.618-.375-.869-.546-.576-.394-1.066-.915-1.47-1.562-.404-.646-.606-1.455-.606-2.425 0-1.273.399-2.35 1.197-3.229.799-.879 1.834-1.4 3.108-1.56V5.082h1.273z"/>
        <path fill="#000" d="M17.053 0L18.189 0 18.189 36 17.053 36z" transform="rotate(45 17.621 18)"/>
    </g>
</svg>
