<svg xmlns="http://www.w3.org/2000/svg" width="19" height="19" viewBox="0 0 19 19">
    <path fill="#FFF" stroke="#FFF" stroke-width=".5" d="M18.201 17.507l-4.234-4.233c1.143-1.303 1.837-3.009 1.837-4.874 0-4.08-3.32-7.4-7.402-7.4C4.32 1 1 4.32 1 8.399c0 4.08 3.321 7.4 7.402 7.4 1.863 0 3.567-.693 4.87-1.832l4.236 4.234c.095.096.221.144.347.144.126 0 .25-.049.346-.144.193-.192.193-.503 0-.694zm-9.799-2.69c-3.54 0-6.42-2.88-6.42-6.418 0-3.539 2.88-6.418 6.42-6.418s6.42 2.88 6.42 6.418c0 3.538-2.88 6.418-6.42 6.418z"/>
</svg>
