<svg xmlns="http://www.w3.org/2000/svg" width="104" height="33" viewBox="0 0 104 33">
    <g fill="none">
        <path fill="#000" d="M2.343 7.832V1.694H0V.132h6.38v1.562H4.037v6.138H2.343zm19.671-1.023c-.777.77-1.753 1.155-2.926 1.155-1.173 0-2.147-.385-2.92-1.155-.774-.77-1.161-1.712-1.161-2.827 0-1.107.39-2.048 1.171-2.822C16.96.387 17.938 0 19.11 0s2.147.385 2.92 1.155c.774.77 1.161 1.712 1.161 2.827 0 1.107-.392 2.05-1.177 2.827zm-4.576-1.111c.44.47.997.704 1.672.704.675 0 1.228-.233 1.661-.699.433-.465.649-1.039.649-1.721 0-.675-.22-1.247-.66-1.716-.44-.47-.997-.704-1.672-.704-.675 0-1.228.233-1.661.698-.433.466-.649 1.04-.649 1.722 0 .675.22 1.247.66 1.716zM35.91 7.953c-1.049 0-1.866-.291-2.453-.875-.587-.583-.88-1.431-.88-2.546v-4.4h1.694v4.356c0 .616.145 1.087.434 1.413.29.327.699.49 1.227.49.528 0 .937-.158 1.226-.473.29-.315.435-.774.435-1.375V.132h1.694v4.345c0 1.144-.299 2.01-.896 2.596-.598.587-1.425.88-2.481.88zm13.104-.121v-7.7h3.52c.975 0 1.723.26 2.244.781.44.44.66 1.034.66 1.782 0 1.18-.55 1.976-1.65 2.387l1.881 2.75h-1.98l-1.672-2.464h-1.309v2.464h-1.694zm1.694-3.96h1.716c.41 0 .73-.1.957-.302.227-.202.341-.472.341-.809 0-.36-.117-.632-.352-.82-.235-.187-.561-.28-.979-.28h-1.683v2.211zm14.028 3.96V6.545l4.235-4.928h-4.103V.132h6.281v1.287l-4.235 4.928h4.235v1.485h-6.413zm16.019 0v-7.7h5.808v1.507h-4.125v1.562h3.63v1.507h-3.63v1.617h4.18v1.507h-5.863zm17.537 0V4.796L95.333.132h1.98l1.837 3.091 1.87-3.091h1.925l-2.959 4.631v3.069h-1.694z" transform="translate(.374 .168)"/>
        <path fill="#E31F3D" d="M1.426 31.832v-14h10.38v2.2h-7.92v3.64h7.02v2.2h-7.02v3.76h8.02v2.2H1.426zm22.02.1l-5.82-14.1h2.72l4.22 10.76 4.2-10.76h2.66l-5.82 14.1h-2.16zm14.38-.1v-14h10.38v2.2h-7.92v3.64h7.02v2.2h-7.02v3.76h8.02v2.2h-10.48zm17.4 0v-14h2.28l7.5 9.68v-9.68h2.42v14h-2.06l-7.72-9.96v9.96h-2.42zm23.24 0v-11.72h-4.44v-2.28h11.36v2.28h-4.44v11.72h-2.48zm18.12.2c-2.14 0-4.16-.74-5.84-2.24l1.48-1.76c1.34 1.16 2.68 1.82 4.42 1.82 1.52 0 2.48-.7 2.48-1.8 0-1-.56-1.54-3.16-2.16-2.98-.7-4.66-1.58-4.66-4.2 0-2.4 2-4.06 4.78-4.06 2.04 0 3.66.62 5.08 1.76l-1.32 1.86c-1.26-.94-2.52-1.44-3.8-1.44-1.44 0-2.28.74-2.28 1.7 0 1.08.64 1.56 3.32 2.2 2.96.72 4.5 1.78 4.5 4.14 0 2.62-2.06 4.18-5 4.18z" transform="translate(.374 .168)"/>
    </g>
</svg>
