<svg xmlns="http://www.w3.org/2000/svg" width="15" height="12" viewBox="0 0 15 12">
    <path fill="#FFF" d="M4.625 11.997c5.551 0 8.584-4.618 8.584-8.622 0-.13 0-.261-.008-.391.59-.43 1.1-.96 1.505-1.569-.55.245-1.135.406-1.733.477.63-.38 1.102-.975 1.326-1.676-.592.353-1.24.601-1.915.735-.938-.996-2.428-1.238-3.632-.59-1.205.647-1.824 2.024-1.51 3.355C4.813 3.592 2.552 2.44 1.024.549.223 1.934.63 3.701 1.958 4.594c-.48-.014-.95-.144-1.37-.38v.039c-.002 1.44 1.01 2.681 2.42 2.97-.443.122-.91.14-1.362.052.393 1.232 1.526 2.078 2.82 2.104-1.068.843-2.388 1.3-3.748 1.3-.24 0-.48-.015-.718-.044 1.378.89 2.984 1.363 4.625 1.362"/>
</svg>
